<?xml version="1.0" encoding="UTF-8"?>
<svg version="1.1" xmlns="http://www.w3.org/2000/svg" width="1024" height="1024">
<path d="M0 0 C337.92 0 675.84 0 1024 0 C1024 337.92 1024 675.84 1024 1024 C686.08 1024 348.16 1024 0 1024 C0 686.08 0 348.16 0 0 Z " fill="#E23D2F" transform="translate(0,0)"/>
<path d="M0 0 C0.93054199 0.13390137 1.86108398 0.26780273 2.81982422 0.40576172 C54.63697259 8.02728916 103.62054174 30.98769464 144 64 C144.54269531 64.43828125 145.08539062 64.8765625 145.64453125 65.328125 C160.74851691 77.58434248 175.26401733 91.46008925 187 107 C188.00742664 108.2812769 189.0167006 109.56110244 190.02734375 110.83984375 C230.59420013 162.51614647 252.29449393 225.83773103 252.1875 291.5 C252.18656342 292.24833099 252.18562683 292.99666199 252.18466187 293.76766968 C252.15176255 305.94803236 251.73501525 317.93153193 250 330 C249.77401123 331.61189209 249.77401123 331.61189209 249.54345703 333.25634766 C241.03865011 392.03837051 215.19574178 445.76137055 175.1875 489.58984375 C173.06733383 491.92581254 171.0030269 494.30326875 168.9375 496.6875 C165.90212239 500.10453609 162.72594496 503.13074407 159.234375 506.07421875 C156.57648746 508.36502042 154.05077103 510.77805547 151.5 513.1875 C118.94767263 543.38891302 76.55669578 564.42374579 34 576 C33.25234375 576.20866699 32.5046875 576.41733398 31.734375 576.63232422 C21.47888123 579.47366383 11.20285049 581.60704776 0.6875 583.25 C-0.86698853 583.49472046 -0.86698853 583.49472046 -2.45288086 583.74438477 C-16.89762327 585.88337688 -31.36349947 586.23954774 -45.9375 586.25 C-46.79305481 586.25067474 -47.64860962 586.25134949 -48.53009033 586.25204468 C-62.55112634 586.23457512 -76.17500048 585.48998006 -90 583 C-91.02722168 582.81775879 -92.05444336 582.63551758 -93.11279297 582.44775391 C-144.6809487 573.10790182 -192.52637112 552.62612671 -233 519 C-234.49660156 517.78183594 -234.49660156 517.78183594 -236.0234375 516.5390625 C-250.57431123 504.51971624 -264.61204124 491.08384802 -276 476 C-276.79019531 475.00355469 -277.58039063 474.00710938 -278.39453125 472.98046875 C-284.73691308 464.96239385 -290.52369391 456.6306411 -296 448 C-296.39654785 447.37738281 -296.7930957 446.75476563 -297.20166016 446.11328125 C-318.127113 412.87924236 -331.7483035 375.68803485 -338 337 C-338.22647217 335.66799561 -338.22647217 335.66799561 -338.45751953 334.30908203 C-349.70078246 266.18242843 -333.57131522 188.8940279 -294 132 C-293.5884668 131.39591309 -293.17693359 130.79182617 -292.75292969 130.16943359 C-282.01868579 114.42360648 -270.21285591 99.73304709 -257 86 C-256.50113281 85.47921875 -256.00226563 84.9584375 -255.48828125 84.421875 C-248.72026741 77.39288377 -241.66825976 71.05176232 -234 65 C-232.83298275 64.04498473 -231.66770997 63.08783499 -230.50390625 62.12890625 C-217.48059297 51.45133261 -203.57975898 42.40255556 -189 34 C-187.89011719 33.35546875 -186.78023437 32.7109375 -185.63671875 32.046875 C-161.26124235 18.46506935 -134.67601612 9.16869378 -107.42138672 3.50683594 C-105.32997085 3.06906831 -103.24440604 2.60351795 -101.16015625 2.1328125 C-97.4538366 1.32400934 -93.74094946 0.6237768 -90 0 C-89.18982422 -0.13680176 -88.37964844 -0.27360352 -87.54492188 -0.41455078 C-58.75018096 -5.05835718 -28.77492486 -4.36732551 0 0 Z " fill="#0B171F" transform="translate(559,113)"/>
<path d="M0 0 C0.93054199 0.13390137 1.86108398 0.26780273 2.81982422 0.40576172 C54.63697259 8.02728916 103.62054174 30.98769464 144 64 C144.54269531 64.43828125 145.08539062 64.8765625 145.64453125 65.328125 C160.74851691 77.58434248 175.26401733 91.46008925 187 107 C188.00742664 108.2812769 189.0167006 109.56110244 190.02734375 110.83984375 C230.59420013 162.51614647 252.29449393 225.83773103 252.1875 291.5 C252.18656342 292.24833099 252.18562683 292.99666199 252.18466187 293.76766968 C252.15176255 305.94803236 251.73501525 317.93153193 250 330 C249.77401123 331.61189209 249.77401123 331.61189209 249.54345703 333.25634766 C241.03865011 392.03837051 215.19574178 445.76137055 175.1875 489.58984375 C173.06733383 491.92581254 171.0030269 494.30326875 168.9375 496.6875 C165.90212239 500.10453609 162.72594496 503.13074407 159.234375 506.07421875 C156.57648746 508.36502042 154.05077103 510.77805547 151.5 513.1875 C118.94767263 543.38891302 76.55669578 564.42374579 34 576 C33.25234375 576.20866699 32.5046875 576.41733398 31.734375 576.63232422 C21.47888123 579.47366383 11.20285049 581.60704776 0.6875 583.25 C-0.86698853 583.49472046 -0.86698853 583.49472046 -2.45288086 583.74438477 C-16.89762327 585.88337688 -31.36349947 586.23954774 -45.9375 586.25 C-46.79305481 586.25067474 -47.64860962 586.25134949 -48.53009033 586.25204468 C-62.55112634 586.23457512 -76.17500048 585.48998006 -90 583 C-91.02722168 582.81775879 -92.05444336 582.63551758 -93.11279297 582.44775391 C-144.6809487 573.10790182 -192.52637112 552.62612671 -233 519 C-234.49660156 517.78183594 -234.49660156 517.78183594 -236.0234375 516.5390625 C-250.57431123 504.51971624 -264.61204124 491.08384802 -276 476 C-276.79019531 475.00355469 -277.58039063 474.00710938 -278.39453125 472.98046875 C-284.73691308 464.96239385 -290.52369391 456.6306411 -296 448 C-296.39654785 447.37738281 -296.7930957 446.75476563 -297.20166016 446.11328125 C-318.127113 412.87924236 -331.7483035 375.68803485 -338 337 C-338.22647217 335.66799561 -338.22647217 335.66799561 -338.45751953 334.30908203 C-349.70078246 266.18242843 -333.57131522 188.8940279 -294 132 C-293.5884668 131.39591309 -293.17693359 130.79182617 -292.75292969 130.16943359 C-282.01868579 114.42360648 -270.21285591 99.73304709 -257 86 C-256.50113281 85.47921875 -256.00226563 84.9584375 -255.48828125 84.421875 C-248.72026741 77.39288377 -241.66825976 71.05176232 -234 65 C-232.83298275 64.04498473 -231.66770997 63.08783499 -230.50390625 62.12890625 C-217.48059297 51.45133261 -203.57975898 42.40255556 -189 34 C-187.89011719 33.35546875 -186.78023437 32.7109375 -185.63671875 32.046875 C-161.26124235 18.46506935 -134.67601612 9.16869378 -107.42138672 3.50683594 C-105.32997085 3.06906831 -103.24440604 2.60351795 -101.16015625 2.1328125 C-97.4538366 1.32400934 -93.74094946 0.6237768 -90 0 C-89.18982422 -0.13680176 -88.37964844 -0.27360352 -87.54492188 -0.41455078 C-58.75018096 -5.05835718 -28.77492486 -4.36732551 0 0 Z M-202 105 C-202.77214844 105.66 -203.54429687 106.32 -204.33984375 107 C-227.47107407 127.32161333 -245.7868077 150.6745074 -260 178 C-260.40460449 178.77649902 -260.80920898 179.55299805 -261.22607422 180.35302734 C-278.87070775 214.68578025 -286.08726592 251.64050017 -287 290 C-287.04447266 291.68802734 -287.04447266 291.68802734 -287.08984375 293.41015625 C-287.12536015 296.27909212 -287.08215514 299.13203884 -287 302 C-286.97164063 303.27875 -286.94328125 304.5575 -286.9140625 305.875 C-285.29346948 355.84518694 -264.91374644 405.75496002 -233 444 C-232.53126465 444.57024902 -232.0625293 445.14049805 -231.57958984 445.72802734 C-220.91006548 458.68671531 -209.37774109 470.80399193 -196 481 C-195.17145508 481.63518555 -195.17145508 481.63518555 -194.32617188 482.28320312 C-141.15495401 522.84741434 -76.70667729 541.20916775 -10.18457031 532.63720703 C25.01507177 527.53722197 62.21370171 512.99080139 91 492 C91.93320068 491.32517578 91.93320068 491.32517578 92.88525391 490.63671875 C100.52393331 485.09460916 107.93482201 479.44124322 114.84765625 473 C116.82869194 471.15918281 118.86437254 469.42275357 120.9375 467.6875 C131.78754641 458.16115925 140.5472393 446.63025834 149 435 C149.75216797 433.96842773 149.75216797 433.96842773 150.51953125 432.91601562 C188.40564317 380.2853087 201.95440432 313.2113783 192.1875 249.51171875 C184.57493953 203.22111666 164.9235205 160.49454228 133 126 C132.16984375 125.06671875 131.3396875 124.1334375 130.484375 123.171875 C115.26841484 106.0972832 97.86788601 91.39548864 78 80 C76.6796212 79.21495526 75.35931257 78.42979248 74.0390625 77.64453125 C-8.45639601 29.39478527 -119.22163084 39.86685001 -202 105 Z " fill="#DE3D2F" transform="translate(559,113)"/>
<path d="M0 0 C0.96292969 0.83917969 1.92585938 1.67835938 2.91796875 2.54296875 C49.96071179 44.50687314 77.11317843 102.21069366 82.6875 164.75 C85.18804898 208.77008099 78.8034987 253.28147847 59 293 C58.58911133 293.84723633 58.17822266 294.69447266 57.75488281 295.56738281 C49.23790541 313.07631039 38.60493418 329.14674739 26 344 C25.54383301 344.54350098 25.08766602 345.08700195 24.61767578 345.64697266 C16.60376195 355.19004319 8.62025788 363.8582576 -1.125 371.68359375 C-2.9759966 373.17495378 -4.81090849 374.68661746 -6.625 376.22265625 C-41.24407945 405.43250454 -88.92790469 425.50186723 -134 429 C-134.74459473 429.06026367 -135.48918945 429.12052734 -136.25634766 429.18261719 C-200.04992265 434.11289144 -263.43517111 413.3663488 -312.390625 372.2734375 C-324.53947795 361.68865843 -336.07116903 350.73796364 -346 338 C-346.67651611 337.14607666 -346.67651611 337.14607666 -347.36669922 336.27490234 C-366.00793915 312.67192364 -380.12036844 285.73716378 -389 257 C-389.34901367 255.90244385 -389.34901367 255.90244385 -389.70507812 254.78271484 C-395.59782597 236.06778418 -398.59796621 216.59799197 -399 197 C-399.03996094 195.68902344 -399.07992188 194.37804687 -399.12109375 193.02734375 C-400.36218838 135.30233994 -382.5807715 79.5262714 -347 34 C-346.58878906 33.47164551 -346.17757812 32.94329102 -345.75390625 32.39892578 C-333.94761401 17.41945676 -320.07763844 3.40520684 -304.63427734 -7.80566406 C-303.00202642 -8.99851908 -301.40097094 -10.22551488 -299.80078125 -11.4609375 C-224.53142432 -68.56881758 -115.12887879 -72.20914169 0 0 Z M-222.65763855 -8.98033142 C-227.62471787 -8.93935934 -232.58878041 -8.85769269 -237.5546875 -8.7421875 C-238.66514435 -8.72858185 -239.7756012 -8.7149762 -240.91970825 -8.70095825 C-247.10490221 -8.50421264 -250.96476015 -7.68233871 -256 -4 C-259.92715116 1.06395808 -261.12456154 4.67410995 -261.12863445 10.99749184 C-261.1318589 12.25890389 -261.13508335 13.52031595 -261.1384055 14.81995261 C-261.13693421 16.22767562 -261.13536648 17.63539853 -261.13371277 19.04312134 C-261.13557997 20.53247459 -261.13788031 22.02182735 -261.14057809 23.51117933 C-261.14671405 27.61440105 -261.14656038 31.71760245 -261.14538372 35.82082772 C-261.14518015 40.24225954 -261.15069429 44.66368476 -261.15544128 49.08511353 C-261.16375888 57.75257726 -261.16649665 66.4200342 -261.16705366 75.0875016 C-261.16752842 82.13302589 -261.16958116 89.17854793 -261.17275429 96.2240715 C-261.18156488 116.19294251 -261.18617318 136.16180814 -261.18542381 156.13068111 C-261.18538386 157.20791279 -261.1853439 158.28514447 -261.18530273 159.39501953 C-261.18526185 160.47356478 -261.18522097 161.55211003 -261.18517885 162.66333847 C-261.18477255 180.13609793 -261.19433697 197.60883583 -261.2084411 215.08158906 C-261.22280388 233.01615584 -261.2297113 250.9507121 -261.22884732 268.88528478 C-261.22851526 278.95659951 -261.23126639 289.02789165 -261.24202538 299.0992012 C-261.2511292 307.67630804 -261.25330669 316.25338204 -261.24651595 324.83049162 C-261.24324979 329.20622618 -261.24319747 333.58189776 -261.2518692 337.95762634 C-261.25973117 341.96603219 -261.25830585 345.97432508 -261.24958507 349.98272817 C-261.24804938 351.43029964 -261.24986884 352.87787953 -261.25544515 354.32544108 C-261.68249356 367.52096618 -261.68249356 367.52096618 -256.75 379.375 C-250.87555007 384.98242948 -244.87753858 386.11799663 -237.00404358 386.14044189 C-235.80049728 386.14615204 -234.59695099 386.15186218 -233.35693359 386.15774536 C-232.04426514 386.15886322 -230.73159668 386.15998108 -229.37915039 386.16113281 C-227.97570161 386.16576515 -226.57225407 386.17079037 -225.16880798 386.17617798 C-221.35783154 386.18927972 -217.54687272 386.19574472 -213.73587728 386.20018864 C-211.34514525 386.20312809 -208.95441792 386.20723491 -206.56368828 386.21169281 C-199.0565204 386.22537317 -191.54936341 386.23503241 -184.04218394 386.2388947 C-175.42977735 386.2433515 -166.81753138 386.26078537 -158.20517355 386.2898953 C-151.51858144 386.31169497 -144.83203384 386.3216089 -138.14540666 386.32293582 C-134.16748806 386.32397258 -130.18972025 386.32963209 -126.21183968 386.34775543 C-105.29495095 386.43762769 -84.17651639 386.48746646 -64 380.1875 C-63.13737549 379.92743164 -62.27475098 379.66736328 -61.38598633 379.39941406 C-28.10580049 369.10202709 1.59356429 345.41395627 18.18359375 314.609375 C32.79355048 286.27209803 35.01911742 251.92609945 26.125 221.41796875 C19.98227245 202.75516802 10.05409789 188.42457052 -3 174 C-2.74831055 173.43716309 -2.49662109 172.87432617 -2.23730469 172.29443359 C12.33368927 139.52639173 18.94912502 104.46500345 6.57421875 69.79296875 C0.21912778 53.88638972 -9.30364987 40.42469428 -21 28 C-21.53882813 27.39671875 -22.07765625 26.7934375 -22.6328125 26.171875 C-44.83819784 2.29271689 -78.40315231 -7.74152688 -110 -9 C-118.16758773 -9.1822617 -126.33869762 -9.14109123 -134.5078125 -9.1328125 C-136.88312795 -9.13348833 -139.25844333 -9.13446066 -141.63375854 -9.13571167 C-146.6010606 -9.13717954 -151.56834459 -9.13506621 -156.53564453 -9.13037109 C-161.57016177 -9.12583768 -166.60464298 -9.1257798 -171.63916016 -9.13037109 C-188.64593514 -9.14582369 -205.65131155 -9.10619138 -222.65763855 -8.98033142 Z " fill="#0B171F" transform="translate(671,218)"/>
<path d="M0 0 C0.93054199 0.13390137 1.86108398 0.26780273 2.81982422 0.40576172 C54.63697259 8.02728916 103.62054174 30.98769464 144 64 C144.54269531 64.43828125 145.08539062 64.8765625 145.64453125 65.328125 C160.74851691 77.58434248 175.26401733 91.46008925 187 107 C188.00742664 108.2812769 189.0167006 109.56110244 190.02734375 110.83984375 C230.59420013 162.51614647 252.29449393 225.83773103 252.1875 291.5 C252.18656342 292.24833099 252.18562683 292.99666199 252.18466187 293.76766968 C252.15176255 305.94803236 251.73501525 317.93153193 250 330 C249.77401123 331.61189209 249.77401123 331.61189209 249.54345703 333.25634766 C241.03865011 392.03837051 215.19574178 445.76137055 175.1875 489.58984375 C173.06733383 491.92581254 171.0030269 494.30326875 168.9375 496.6875 C165.90212239 500.10453609 162.72594496 503.13074407 159.234375 506.07421875 C156.57648746 508.36502042 154.05077103 510.77805547 151.5 513.1875 C118.94767263 543.38891302 76.55669578 564.42374579 34 576 C33.25234375 576.20866699 32.5046875 576.41733398 31.734375 576.63232422 C21.47888123 579.47366383 11.20285049 581.60704776 0.6875 583.25 C-0.86698853 583.49472046 -0.86698853 583.49472046 -2.45288086 583.74438477 C-16.89762327 585.88337688 -31.36349947 586.23954774 -45.9375 586.25 C-46.79305481 586.25067474 -47.64860962 586.25134949 -48.53009033 586.25204468 C-62.55112634 586.23457512 -76.17500048 585.48998006 -90 583 C-91.02722168 582.81775879 -92.05444336 582.63551758 -93.11279297 582.44775391 C-144.6809487 573.10790182 -192.52637112 552.62612671 -233 519 C-234.49660156 517.78183594 -234.49660156 517.78183594 -236.0234375 516.5390625 C-250.57431123 504.51971624 -264.61204124 491.08384802 -276 476 C-276.79019531 475.00355469 -277.58039063 474.00710938 -278.39453125 472.98046875 C-284.73691308 464.96239385 -290.52369391 456.6306411 -296 448 C-296.39654785 447.37738281 -296.7930957 446.75476563 -297.20166016 446.11328125 C-318.127113 412.87924236 -331.7483035 375.68803485 -338 337 C-338.22647217 335.66799561 -338.22647217 335.66799561 -338.45751953 334.30908203 C-349.70078246 266.18242843 -333.57131522 188.8940279 -294 132 C-293.5884668 131.39591309 -293.17693359 130.79182617 -292.75292969 130.16943359 C-282.01868579 114.42360648 -270.21285591 99.73304709 -257 86 C-256.50113281 85.47921875 -256.00226563 84.9584375 -255.48828125 84.421875 C-248.72026741 77.39288377 -241.66825976 71.05176232 -234 65 C-232.83298275 64.04498473 -231.66770997 63.08783499 -230.50390625 62.12890625 C-217.48059297 51.45133261 -203.57975898 42.40255556 -189 34 C-187.89011719 33.35546875 -186.78023437 32.7109375 -185.63671875 32.046875 C-161.26124235 18.46506935 -134.67601612 9.16869378 -107.42138672 3.50683594 C-105.32997085 3.06906831 -103.24440604 2.60351795 -101.16015625 2.1328125 C-97.4538366 1.32400934 -93.74094946 0.6237768 -90 0 C-89.18982422 -0.13680176 -88.37964844 -0.27360352 -87.54492188 -0.41455078 C-58.75018096 -5.05835718 -28.77492486 -4.36732551 0 0 Z M-75 15 C-75.95616211 15.11972168 -76.91232422 15.23944336 -77.89746094 15.36279297 C-118.38749443 20.70116655 -158.68960564 35.8237695 -193 58 C-194.52367187 58.96292969 -194.52367187 58.96292969 -196.078125 59.9453125 C-204.11190097 65.1399268 -211.60010368 70.95163651 -219 77 C-219.86262451 77.70382813 -219.86262451 77.70382813 -220.74267578 78.421875 C-234.10076473 89.4009196 -246.3317967 101.37464561 -257 115 C-257.92665764 116.11710361 -258.85654246 117.23153543 -259.7890625 118.34375 C-267.81814611 127.99728295 -274.57985881 138.21921733 -281 149 C-281.44085938 149.73589355 -281.88171875 150.47178711 -282.3359375 151.22998047 C-307.86092173 194.24538003 -319.21120269 243.45591815 -319.25 293.1875 C-319.25067474 293.97346558 -319.25134949 294.75943115 -319.25204468 295.56921387 C-319.23269148 309.87755591 -318.31470234 323.86129714 -316 338 C-315.8443457 338.97195313 -315.68869141 339.94390625 -315.52832031 340.9453125 C-311.56553389 364.67457252 -303.73894529 388.46759701 -293 410 C-292.42016357 411.16813232 -292.42016357 411.16813232 -291.82861328 412.35986328 C-286.5020735 422.98970129 -280.72290617 433.19313943 -274 443 C-273.60844727 443.57556641 -273.21689453 444.15113281 -272.81347656 444.74414062 C-266.73056268 453.63568436 -260.07562385 461.88384324 -253 470 C-252.37351562 470.73863281 -251.74703125 471.47726562 -251.1015625 472.23828125 C-246.36379254 477.78792259 -241.19432693 482.88083214 -236 488 C-235.17242187 488.83144531 -234.34484375 489.66289063 -233.4921875 490.51953125 C-214.66507372 509.25811628 -192.44393603 524.6076248 -169 537 C-168.33758301 537.35046387 -167.67516602 537.70092773 -166.99267578 538.06201172 C-129.82680179 557.54781803 -88.39067685 567.47569882 -46.5 567.3125 C-45.5295575 567.31067719 -44.55911499 567.30885437 -43.55926514 567.30697632 C-28.84523172 567.26046757 -14.48818252 566.79773683 0 564 C1.3602832 563.74259033 1.3602832 563.74259033 2.74804688 563.47998047 C49.64625011 554.32452174 94.65320649 533.05897516 131 502 C131.74894531 501.36320312 132.49789063 500.72640625 133.26953125 500.0703125 C146.14322461 488.79760656 158.55063793 476.67235414 168.65625 462.83105469 C170.10181798 460.86125821 171.58109402 458.91952594 173.0625 456.9765625 C218.35946643 396.79797412 234.64286154 322.5048996 224.44468689 248.55072021 C214.79685167 180.59882027 180.92479755 116.31083486 126 74 C124.73641473 72.99680428 123.47343816 71.99284158 122.2109375 70.98828125 C84.42162099 41.1901098 41.25820286 23.9162649 -6 16 C-6.73557129 15.87254395 -7.47114258 15.74508789 -8.22900391 15.61376953 C-30.12550184 11.91767144 -53.03250881 12.21982038 -75 15 Z " fill="#0C171F" transform="translate(559,113)"/>
<path d="M0 0 C6.22187569 0.00010205 12.44363841 -0.0136324 18.66548729 -0.03077221 C23.53887424 -0.04199469 28.41223455 -0.04391622 33.28563309 -0.04339027 C35.57764709 -0.04455184 37.86966222 -0.04886768 40.16166306 -0.05672264 C81.3672799 -0.18493776 81.3672799 -0.18493776 100.07861328 6.18530273 C100.77229004 6.41846191 101.4659668 6.65162109 102.18066406 6.8918457 C119.63237042 12.86814118 134.55793411 21.65879115 148.07861328 34.18530273 C148.96033203 34.98581055 149.84205078 35.78631836 150.75048828 36.61108398 C171.38194475 56.18533849 183.89135293 83.65700907 185.26220703 111.97827148 C185.62704069 133.71806539 181.78820715 154.2743328 173.07861328 174.18530273 C172.44826172 175.63743164 172.44826172 175.63743164 171.80517578 177.11889648 C170.91241413 179.14818803 169.99867588 181.16824241 169.07861328 183.18530273 C169.76826172 183.88913086 170.45791016 184.59295898 171.16845703 185.31811523 C194.05269908 209.15654991 203.5962545 239.0985995 203.29345703 271.93530273 C201.97181617 306.34721886 187.40086663 334.82914861 162.91845703 358.65405273 C133.88683348 384.53093315 98.55635407 395.53379956 60.00268555 395.45996094 C58.57652016 395.46432485 57.1503571 395.46951347 55.72419739 395.47544861 C51.90645332 395.48865772 48.08880928 395.48943873 44.27104688 395.48688531 C41.06749636 395.4858049 37.86396523 395.49072507 34.66041893 395.49549073 C27.10294311 395.5065194 19.54551704 395.50705857 11.98803711 395.50097656 C4.21592663 395.49491802 -3.55600368 395.50731053 -11.32808346 395.52854663 C-18.03423534 395.54618989 -24.74032995 395.5521604 -31.44650418 395.54890889 C-35.43780479 395.54710303 -39.4289763 395.54966374 -43.42025566 395.56362343 C-47.16743262 395.57624481 -50.91432804 395.57421736 -54.66150093 395.56121254 C-56.6790046 395.55774143 -58.69651707 395.56898767 -60.71398926 395.58078003 C-70.7567185 395.52293169 -78.64322887 394.46346058 -85.92138672 387.18530273 C-89.36776017 382.26191208 -89.04611311 375.49332962 -89.0556078 369.69282627 C-89.06006564 368.42283332 -89.06452348 367.15284038 -89.06911641 365.8443628 C-89.06902714 364.44771992 -89.06883732 363.05107705 -89.06855774 361.6544342 C-89.07186008 360.16091566 -89.07558643 358.667398 -89.07969922 357.17388147 C-89.08968426 353.07777074 -89.09343032 348.98167465 -89.09608853 344.88555348 C-89.1000017 340.46488968 -89.10957896 336.04423737 -89.11830139 331.62358093 C-89.13803176 320.95525748 -89.14812525 310.28693312 -89.15702918 299.61859599 C-89.16141556 294.59332461 -89.16678126 289.56805428 -89.17201805 284.54278374 C-89.18902287 267.83787918 -89.20351877 251.13297527 -89.21076679 234.42806339 C-89.21267662 230.0965735 -89.21459697 225.76508362 -89.21655273 221.43359375 C-89.21703647 220.3570482 -89.21752021 219.28050264 -89.21801861 218.1713345 C-89.22632563 200.71752986 -89.2516772 183.2637936 -89.28413341 165.81001884 C-89.31718917 147.88776055 -89.335214 129.96553706 -89.33841103 112.04324812 C-89.34057693 101.98149236 -89.34933783 91.91983648 -89.37487221 81.85811043 C-89.39655847 73.29312599 -89.40463964 64.72826573 -89.39490543 56.16325695 C-89.39035543 51.79362015 -89.39228774 47.42423969 -89.41166687 43.05463791 C-89.42926049 39.05312092 -89.428332 35.05204801 -89.41276958 31.05052655 C-89.41038778 29.60443343 -89.41474675 28.15830987 -89.42659823 26.71226335 C-89.48749732 18.78989775 -89.34059056 12.90067996 -84.92138672 6.18530273 C-79.01672918 0.56867727 -73.43978227 0.89469692 -65.69482422 0.63452148 C-63.82665543 0.57176277 -63.82665543 0.57176277 -61.92074585 0.50773621 C-41.28980472 -0.11974397 -20.63810329 -0.00177318 0 0 Z M-57.92138672 29.18530273 C-57.92138672 140.06530273 -57.92138672 250.94530273 -57.92138672 365.18530273 C54.39377651 374.54401645 54.39377651 374.54401645 147.39111328 331.31030273 C165.80958866 312.16597611 172.66363231 288.44981022 172.35986328 262.40014648 C171.97994824 249.93703355 168.5065347 238.3888954 163.07861328 227.18530273 C162.30710937 225.58235352 162.30710937 225.58235352 161.52001953 223.94702148 C154.11655472 209.39656292 143.75398454 198.82190708 130.34033203 189.72827148 C128.20448987 188.27117709 126.13480523 186.75214923 124.07861328 185.18530273 C124.91263672 184.48147461 125.74666016 183.77764648 126.60595703 183.05249023 C143.12358019 168.72261543 151.95894066 151.03388529 154.07861328 129.18530273 C155.7288598 104.99603708 150.08037439 82.35923222 134.16064453 63.51733398 C133.13003906 62.36297852 133.13003906 62.36297852 132.07861328 61.18530273 C131.40185547 60.42604492 130.72509766 59.66678711 130.02783203 58.88452148 C111.06416903 38.81146686 85.77602459 31.61234013 59.07861328 29.18530273 C20.46861328 29.18530273 -18.14138672 29.18530273 -57.92138672 29.18530273 Z " fill="#DD3D2F" transform="translate(498.92138671875,208.814697265625)"/>
<path d="M0 0 C0.81967758 -0.0065712 1.63935516 -0.0131424 2.48387146 -0.01991272 C5.21279994 -0.03971363 7.94167292 -0.05133004 10.6706543 -0.0612793 C12.07001252 -0.06739259 12.07001252 -0.06739259 13.49764061 -0.07362938 C18.44569047 -0.09452984 23.39371236 -0.10880812 28.34179688 -0.11816406 C33.43125988 -0.12917125 38.5202787 -0.16349317 43.60958576 -0.20333576 C47.53810885 -0.22962486 51.46652877 -0.23786729 55.39513206 -0.24144554 C57.2692276 -0.24628841 59.14331925 -0.257836 61.01732826 -0.27648354 C78.51043002 -0.43957574 92.9159422 2.67524342 106.1081543 14.9465332 C115.51700094 25.06414419 117.69781569 36.71783405 117.55737305 50.11450195 C117.56897461 51.21729492 117.58057617 52.32008789 117.5925293 53.45629883 C117.54117793 67.96306066 113.06104457 79.58921645 103.2175293 90.2980957 C92.89495472 99.82815015 79.96394052 104.3439456 66.10327148 104.30639648 C64.90489655 104.30902496 64.90489655 104.30902496 63.68231201 104.31170654 C61.05210168 104.31609401 58.42195901 104.31319913 55.79174805 104.30981445 C53.96282946 104.31048812 52.13391096 104.31145867 50.30499268 104.31271362 C46.47862899 104.31418616 42.6522887 104.3120493 38.82592773 104.30737305 C33.91055326 104.30165987 28.99523319 104.30496759 24.07986069 104.31094551 C20.30706366 104.31454935 16.53427965 104.31341364 12.76148224 104.31081772 C10.94810225 104.31014879 9.13472109 104.31097568 7.32134247 104.31329727 C4.79549495 104.31582263 2.26973727 104.31198562 -0.25610352 104.30639648 C-1.01141357 104.30842072 -1.76672363 104.31044495 -2.54492188 104.31253052 C-7.70336091 104.291268 -7.70336091 104.291268 -8.81762695 103.17700195 C-8.91832474 100.01623851 -8.95376719 96.87728168 -8.94702148 93.71606445 C-8.9487738 92.72266052 -8.95052612 91.72925659 -8.95233154 90.70574951 C-8.95675206 87.40448283 -8.95381136 84.10326923 -8.95043945 80.80200195 C-8.95111243 78.51896148 -8.95208241 76.23592108 -8.95333862 73.95288086 C-8.95481587 69.16104451 -8.95266019 64.36922677 -8.94799805 59.57739258 C-8.94230075 53.41983561 -8.94557961 47.26232222 -8.95157051 41.10476685 C-8.95517541 36.38834298 -8.95403787 31.67192954 -8.95144272 26.95550537 C-8.95077325 24.68438716 -8.95160255 22.41326801 -8.95392227 20.14215088 C-8.95644763 16.97405473 -8.95260985 13.80603023 -8.94702148 10.63793945 C-8.94904572 9.68933044 -8.95106995 8.74072144 -8.95315552 7.7633667 C-8.92585996 -0.54364697 -7.67417548 0.02639722 0 0 Z " fill="#E03D2F" transform="translate(496.817626953125,420.822998046875)"/>
<path d="M0 0 C0.65401291 -0.00350464 1.30802582 -0.00700928 1.9818573 -0.01062012 C4.15353904 -0.01945048 6.32489669 -0.01357713 8.49658203 -0.00683594 C10.0119737 -0.00818384 11.52736494 -0.01012542 13.04275513 -0.01263428 C16.22890311 -0.01558862 19.41493922 -0.01128401 22.60107422 -0.00195312 C26.65347337 0.00934473 30.70560476 0.0029461 34.7579937 -0.00909805 C37.8947443 -0.01639172 41.03143354 -0.013993 44.16818619 -0.00884247 C45.65987302 -0.00752153 47.15156569 -0.00909821 48.6432457 -0.01380157 C65.34316564 -0.05483978 79.89909697 0.96583835 92.37548828 12.97363281 C93.11927734 13.72773438 93.86306641 14.48183594 94.62939453 15.25878906 C95.21849609 15.83757812 95.80759766 16.41636719 96.41455078 17.01269531 C105.87523188 27.05408318 108.10112995 40.20449944 107.87548828 53.47753906 C107.08802138 65.57703057 102.68555329 76.28836837 93.73876953 84.66113281 C79.50689312 95.44046142 62.74341637 95.41813775 45.69189453 95.39160156 C44.16015609 95.39227616 42.62841776 95.39324748 41.09667969 95.39450073 C37.9062395 95.39596681 34.71582751 95.39385602 31.52539062 95.38916016 C27.42845963 95.3834246 23.33159361 95.38677271 19.23466492 95.39273262 C16.08123274 95.39633477 12.92781617 95.39520193 9.77438354 95.39260483 C8.26244092 95.3919366 6.75049689 95.39276038 5.23855591 95.39508438 C3.13702592 95.39760939 1.03560392 95.39377433 -1.06591797 95.38818359 C-2.86053467 95.3869902 -2.86053467 95.3869902 -4.69140625 95.38577271 C-7.37060547 95.25878906 -7.37060547 95.25878906 -8.37060547 94.25878906 C-8.47648336 91.40861609 -8.51738282 88.58254538 -8.51586914 85.73168945 C-8.51922775 84.83742752 -8.52258636 83.94316559 -8.52604675 83.02180481 C-8.53558704 80.05000439 -8.53750139 77.07826012 -8.53857422 74.10644531 C-8.54178463 72.05000281 -8.54514853 69.99356054 -8.54866028 67.93711853 C-8.55465924 63.62026439 -8.55649939 59.30343029 -8.5559082 54.98657227 C-8.55580653 49.44338577 -8.5694608 43.90032721 -8.58668041 38.35717106 C-8.59777557 34.10822454 -8.59982818 29.85930919 -8.59929848 25.61034966 C-8.60048228 23.56613155 -8.60492625 21.52191274 -8.61263084 19.47770882 C-8.6223809 16.62347468 -8.61957254 13.76952145 -8.61352539 10.9152832 C-8.6191449 10.06377686 -8.6247644 9.21227051 -8.6305542 8.33496094 C-8.59050674 0.93166141 -7.2008431 0.00966794 0 0 Z " fill="#DF3D2F" transform="translate(496.37060546875,285.7412109375)"/>
<path d="M0 0 C56.60840471 0 56.60840471 0 66.3125 9.13671875 C73.3418349 16.89827604 75.33461096 26.4711292 75.14453125 36.68359375 C74.56091215 46.03727277 70.9745291 54.54595815 64 61 C65.29242197 63.85563711 66.66303428 65.79949524 68.875 68 C76.79648937 77.24173759 76.98853526 89.26430536 76.21875 100.84716797 C75.29394885 109.94861502 71.01549917 117.19648075 64 123 C44.05674064 134.67546557 22.70252286 129 -1 129 C-0.67 86.43 -0.34 43.86 0 0 Z " fill="#F5EAD0" transform="translate(523,723)"/>
<path d="M0 0 C3.85997967 1.03079003 6.66918492 3.40712955 9.0625 6.55078125 C11.80446768 12.50894189 11.3434867 18.68892196 11.32319641 25.1078949 C11.32702196 26.38623437 11.33084751 27.66457385 11.33478898 28.98165089 C11.3450699 32.52330404 11.34288694 36.06485597 11.33860838 39.60651743 C11.33614135 43.42867857 11.34515502 47.25081532 11.35264587 51.07296753 C11.36539528 58.55824159 11.36718629 66.04347978 11.36484561 73.52876287 C11.36306265 79.61266037 11.36481162 85.69654699 11.36907005 91.78044319 C11.36996284 93.07922429 11.36996284 93.07922429 11.37087366 94.4042434 C11.3720854 96.16321508 11.37329954 97.92218676 11.37451603 99.68115843 C11.38539239 116.17665559 11.38322856 132.67213231 11.37713119 149.16763062 C11.37196129 164.25865199 11.38321921 179.34960883 11.40222941 194.44061743 C11.42160024 209.93670735 11.42986517 225.43276672 11.42610615 240.92886883 C11.42419305 249.62851368 11.4266924 258.32810359 11.44082069 267.02773857 C11.4527258 274.43335338 11.45414913 281.83887943 11.44203053 289.24449544 C11.43613586 293.02258418 11.43505857 296.8005105 11.44703293 300.57858849 C11.45986455 304.67474945 11.4494414 308.77052274 11.4367218 312.86668396 C11.44409609 314.06006817 11.45147037 315.25345238 11.45906812 316.48299974 C11.4108259 323.8502618 11.13119421 329.48208704 5.6875 334.92578125 C2.88244605 336.66224322 1.35745962 337.47232983 -1.9375 337.55078125 C-6.30625697 336.3244635 -8.9820961 335.05696301 -11.3125 331.17578125 C-13.45907415 326.38726968 -14.06192839 322.36626244 -14.06892776 317.15053177 C-14.07468948 315.53459558 -14.07468948 315.53459558 -14.0805676 313.88601422 C-14.07970112 312.70830543 -14.07883463 311.53059664 -14.07794189 310.31719971 C-14.08091302 309.06154355 -14.08388414 307.80588739 -14.0869453 306.51218104 C-14.09500233 303.02916447 -14.09680414 299.54616852 -14.09754276 296.06314373 C-14.09939556 292.30569088 -14.10694402 288.54824868 -14.11367798 284.790802 C-14.12725233 276.57588122 -14.13328454 268.36096532 -14.13768864 260.14603519 C-14.14045242 255.01561696 -14.14469001 249.8852006 -14.14919281 244.75478363 C-14.16138401 230.54712162 -14.17168381 216.33946111 -14.1750679 202.13179398 C-14.17539725 200.76816707 -14.17539725 200.76816707 -14.17573325 199.37699215 C-14.17595153 198.4657478 -14.17616981 197.55450346 -14.1763947 196.61564565 C-14.17683817 194.76915439 -14.17728473 192.92266313 -14.17773438 191.07617188 C-14.1779558 190.16025083 -14.17817723 189.24432978 -14.17840537 188.30065355 C-14.18235329 173.45988408 -14.19980779 158.61916371 -14.2230939 143.77841321 C-14.24681431 128.53773225 -14.25927006 113.29707593 -14.26043582 98.05637622 C-14.26135216 89.50084683 -14.26709422 80.94538144 -14.28525543 72.38986969 C-14.30066568 65.10470026 -14.30577141 57.8196146 -14.29751733 50.53443196 C-14.29361417 46.8188802 -14.29452399 43.1034971 -14.30857468 39.38796616 C-14.32368247 35.35595512 -14.31543731 31.32432311 -14.30499268 27.29229736 C-14.31304908 26.12351146 -14.32110548 24.95472556 -14.32940602 23.7505219 C-14.28110557 15.77803413 -13.46060121 9.08312294 -8.75 2.48828125 C-5.75280496 0.42354689 -3.66140491 -0.24270676 0 0 Z " fill="#DB3D2F" transform="translate(379.9375,235.44921875)"/>
<path d="M0 0 C55.68922306 0 55.68922306 0 64.47265625 8.24609375 C72.57407666 17.54925939 74.51145424 29.0526733 74.375 41 C74.38660156 42.01578125 74.39820313 43.0315625 74.41015625 44.078125 C74.36807617 55.0189459 71.55039652 64.16268201 65 73 C63.5459375 74.0828125 63.5459375 74.0828125 62.0625 75.1875 C61.381875 75.785625 60.70125 76.38375 60 77 C60.32179946 83.01101737 62.35583916 88.39301688 64.37890625 94.01953125 C64.71043198 94.9593132 65.0419577 95.89909515 65.38352966 96.86735535 C66.43706217 99.85128091 67.49920261 102.83204156 68.5625 105.8125 C69.62816999 108.81121229 70.6919581 111.81056075 71.75218201 114.811203 C72.41089271 116.67433414 73.07295862 118.53628305 73.73866272 120.39692688 C74.1842881 121.65414803 74.1842881 121.65414803 74.63891602 122.93676758 C74.9023732 123.6751033 75.16583038 124.41343903 75.43727112 125.17414856 C76 127 76 127 76 129 C68.08 129 60.16 129 52 129 C51.05125 126.31875 50.1025 123.6375 49.125 120.875 C48.68244873 119.62565674 48.68244873 119.62565674 48.23095703 118.35107422 C45.4535206 110.49136047 42.89687091 102.56991851 40.375 94.625 C40.05015625 93.60277344 39.7253125 92.58054687 39.390625 91.52734375 C38.59337419 89.01834855 37.79663602 86.50919047 37 84 C32.71 84 28.42 84 24 84 C23.67 98.85 23.34 113.7 23 129 C15.41 129 7.82 129 0 129 C0 86.43 0 43.86 0 0 Z " fill="#F5EAD0" transform="translate(300,723)"/>
<path d="M0 0 C9.9 0 19.8 0 30 0 C31.91624454 5.74873362 33.66204122 11.26945939 35.0234375 17.1328125 C35.29703346 18.28791573 35.29703346 18.28791573 35.57615662 19.46635437 C36.17963767 22.01834116 36.77730019 24.57165358 37.375 27.125 C37.80519157 28.94890414 38.23578499 30.77271354 38.66674805 32.59643555 C39.60439261 36.56719844 40.5396072 40.53852343 41.47314453 44.51025391 C43.09986456 51.42881269 44.73499267 58.34537325 46.37109375 65.26171875 C48.06337211 72.41593438 49.75562398 79.5701545 51.44482422 86.72509766 C51.83834076 88.39161377 51.83834076 88.39161377 52.23980713 90.09179688 C52.75384579 92.26914797 53.26764531 94.44655554 53.78118896 96.62402344 C55.00984107 101.82914073 56.2458557 107.03230737 57.49755859 112.23193359 C57.73214279 113.20853439 57.96672699 114.18513519 58.2084198 115.19132996 C58.6494296 117.02506284 59.09229111 118.85835172 59.53730774 120.69111633 C61 126.77779612 61 126.77779612 61 129 C53.41 129 45.82 129 38 129 C35.69782711 122.09348134 33.87581241 115.03429654 32 108 C20.78 108 9.56 108 -2 108 C-3.32 112.95 -4.64 117.9 -6 123 C-6.66 124.98 -7.32 126.96 -8 129 C-15.59 129 -23.18 129 -31 129 C-28.65971279 117.80760947 -26.04976473 106.69823717 -23.359375 95.5859375 C-22.90948287 93.72249292 -22.45971756 91.85901772 -22.0100708 89.99551392 C-21.06985088 86.10057752 -20.12841574 82.20593761 -19.18603516 78.31152344 C-17.99970069 73.40873963 -16.81592176 68.50534339 -15.63297272 63.60174179 C-10.51205661 42.37780725 -5.33343893 21.17168991 0 0 Z " fill="#F5EAD0" transform="translate(226,723)"/>
<path d="M0 0 C9.9 0 19.8 0 30 0 C30.51796143 2.21283691 31.03592285 4.42567383 31.56958008 6.70556641 C33.76263227 16.07361533 35.95728926 25.44128805 38.15255356 34.80881882 C38.5910092 36.6798351 39.02942753 38.55086012 39.46780777 40.42189407 C45.26294018 65.15553554 51.0736885 89.88455324 57.05200195 114.57470703 C57.36175461 115.85899849 57.36175461 115.85899849 57.67776489 117.16923523 C58.05254752 118.72278609 58.42915804 120.27589777 58.80807495 121.82844543 C60 126.77494567 60 126.77494567 60 129 C52.41 129 44.82 129 37 129 C34.69782711 122.09348134 32.87581241 115.03429654 31 108 C19.78 108 8.56 108 -3 108 C-4.65 114.93 -6.3 121.86 -8 129 C-15.92 129 -23.84 129 -32 129 C-31.443125 126.23625 -30.88625 123.4725 -30.3125 120.625 C-30.06753784 119.38290771 -30.06753784 119.38290771 -29.81762695 118.11572266 C-28.73032003 112.84687051 -27.3654071 107.68596415 -25.88671875 102.515625 C-21.84611246 88.28611468 -18.53049098 73.85878721 -15.06756592 59.48046875 C-13.39286854 52.53026753 -11.71168693 45.58162783 -10.03125 38.6328125 C-9.8531076 37.89610573 -9.67496521 37.15939896 -9.49142456 36.40036774 C-7.35614661 27.57236044 -5.21789881 18.74514144 -3.03125 9.9296875 C-2.83374146 9.1271756 -2.63623291 8.3246637 -2.43273926 7.49783325 C-1.11867775 2.2373555 -1.11867775 2.2373555 0 0 Z " fill="#F5EAD0" transform="translate(722,723)"/>
<path d="M0 0 C7.59 0 15.18 0 23 0 C22.98839844 3.59777344 22.97679688 7.19554687 22.96484375 10.90234375 C22.95705443 14.37068595 22.95097696 17.83902719 22.94506836 21.30737305 C22.94002651 23.72567172 22.93319322 26.14396733 22.92456055 28.56225586 C22.91248843 32.02979283 22.90677037 35.49728966 22.90234375 38.96484375 C22.89718246 40.05337143 22.89202118 41.14189911 22.88670349 42.26341248 C22.88662796 43.26437454 22.88655243 44.26533661 22.88647461 45.29663086 C22.88314369 46.62566689 22.88314369 46.62566689 22.87974548 47.98155212 C22.77571959 49.9969869 22.77571959 49.9969869 24 51 C26.21855264 51.08783542 28.43988496 51.10694609 30.66015625 51.09765625 C32.48365601 51.09390991 32.48365601 51.09390991 34.34399414 51.09008789 C36.67965454 51.07643188 36.67965454 51.07643188 39.0625 51.0625 C43.991875 51.041875 48.92125 51.02125 54 51 C54.33 34.17 54.66 17.34 55 0 C62.59 0 70.18 0 78 0 C78 42.57 78 85.14 78 129 C70.41 129 62.82 129 55 129 C54.67 111.51 54.34 94.02 54 76 C43.77 76 33.54 76 23 76 C23 93.49 23 110.98 23 129 C15.41 129 7.82 129 0 129 C0 86.43 0 43.86 0 0 Z " fill="#F4EAD0" transform="translate(104,723)"/>
<path d="M0 0 C8.17710454 6.85335196 11.1043656 15.00130356 12.6875 25.375 C12.6875 26.695 12.6875 28.015 12.6875 29.375 C5.4275 29.375 -1.8325 29.375 -9.3125 29.375 C-10.3025 27.065 -11.2925 24.755 -12.3125 22.375 C-15.03655311 19.34827432 -18.11932894 18.61944486 -22.1484375 18.2421875 C-25.98831997 18.47784816 -29.29831258 20.01883941 -32.3125 22.375 C-34.42978619 25.87613337 -34.93051398 28.28065737 -34.3125 32.375 C-30.10720895 41.44783267 -22.6532708 45.72375184 -14.42578125 50.75 C-0.8688635 59.04871901 9.81004361 66.50454594 14.18359375 82.57421875 C16.45408799 95.19394253 14.25454173 106.38080521 7.4140625 117.11328125 C1.88387661 124.35757453 -5.54705588 127.48572841 -14.3515625 128.84375 C-26.69655527 130.14012156 -38.36820062 128.62675191 -48.34765625 120.7734375 C-54.90519879 114.67534062 -58.20616042 107.21115957 -59.3125 98.375 C-59.3125 96.065 -59.3125 93.755 -59.3125 91.375 C-51.7225 91.375 -44.1325 91.375 -36.3125 91.375 C-34.9925 94.345 -33.6725 97.315 -32.3125 100.375 C-29.45280448 103.64322346 -27.05648857 104.63195572 -22.875 105.3125 C-18.54618701 105.59293805 -15.87482852 105.02603517 -12.3125 102.375 C-8.66460784 97.69821518 -7.86507464 94.62627264 -8.46484375 88.78125 C-10.92588265 81.79507506 -15.63890292 78.01939971 -21.875 74.4375 C-23.30537315 73.57665908 -24.73505483 72.71466823 -26.1640625 71.8515625 C-26.86692383 71.43293945 -27.56978516 71.01431641 -28.29394531 70.58300781 C-41.7718174 62.51715016 -51.93986743 54.85728377 -56.921875 39.49609375 C-59.02482557 28.07707216 -57.42237185 16.92218457 -51.25 7.125 C-46.4435541 0.67584474 -39.6081862 -3.81528978 -31.62890625 -5.37890625 C-20.65277036 -6.545005 -9.40377841 -6.39954675 0 0 Z " fill="#F5EAD0" transform="translate(918.3125,725.625)"/>
<path d="M0 0 C3.96745503 3.26212969 6.72575158 6.34129454 7.26171303 11.5371809 C7.26724379 12.50058549 7.27277454 13.46399008 7.2784729 14.45658875 C7.28963733 15.56808761 7.30080175 16.67958647 7.3123045 17.82476711 C7.31446374 19.04234738 7.31662298 20.25992765 7.31884766 21.5144043 C7.32888478 22.80351495 7.33892191 24.0926256 7.34926319 25.42080021 C7.37664978 28.97553215 7.39173478 32.53022442 7.40467906 36.08503437 C7.42049342 39.85883838 7.44751923 43.63256334 7.47315979 47.40631104 C7.52063163 54.66521946 7.5574702 61.92414279 7.59017223 69.18313134 C7.61654991 75.00257172 7.64671781 80.82198075 7.67959595 86.64138794 C7.68422472 87.46210071 7.68885349 88.28281348 7.69362253 89.12839633 C7.70297107 90.78484021 7.71232294 92.44128406 7.72167814 94.09772789 C7.80775135 109.4392581 7.88018332 124.78082563 7.94470501 140.12246037 C7.9821814 149.02242284 8.02386346 157.9223468 8.07080078 166.82226562 C8.11724882 175.70389028 8.15350269 184.5854735 8.17523193 193.4671936 C8.18251435 196.42472183 8.19378081 199.38219111 8.20855713 202.33969116 C8.22774901 206.29809203 8.23045237 210.25639348 8.23046875 214.21484375 C8.23760391 215.30798889 8.24473907 216.40113403 8.25209045 217.52740479 C8.22402508 226.81522295 7.77255962 234.22744038 1 241 C-2.27328013 242.63664006 -5.49090182 242.81379828 -9 242 C-12.45783046 239.23817824 -14.60645867 236.18062398 -16 232 C-16.10055712 229.10800564 -16.1434213 226.23998397 -16.14044189 223.3477478 C-16.14341302 222.4531531 -16.14638414 221.5585584 -16.1494453 220.63685477 C-16.15814526 217.62687167 -16.15964166 214.61692828 -16.16113281 211.60693359 C-16.16576015 209.45363276 -16.1707847 207.30033274 -16.17617798 205.14703369 C-16.18931405 199.2872901 -16.19574955 193.42755797 -16.20018864 187.56780195 C-16.20311805 183.90712422 -16.20722266 180.24644962 -16.21169281 176.58577347 C-16.22537231 165.13337257 -16.23503616 153.68097884 -16.2388947 142.22857034 C-16.24337357 129.0072068 -16.26091167 115.78594673 -16.2898953 102.56461465 C-16.31151644 92.34708614 -16.32159925 82.12958673 -16.32293582 71.91203558 C-16.32398374 65.80897588 -16.32988866 59.70601338 -16.34775543 53.60297775 C-16.36424298 47.85906903 -16.36638818 42.11533052 -16.35761642 36.37140656 C-16.35684636 34.26595478 -16.36118468 32.16049384 -16.37107468 30.05506516 C-16.38380914 27.17455975 -16.37790902 24.29465576 -16.36749268 21.41415405 C-16.37554908 20.58640736 -16.38360548 19.75866067 -16.39190602 18.90583074 C-16.34051975 12.80470653 -15.63162521 6.1465338 -11.58346677 1.30630529 C-7.85929736 -1.7660056 -4.42795954 -1.06881782 0 0 Z " fill="#DB3D30" transform="translate(341,289)"/>
<path d="M0 0 C20.13 0 40.26 0 61 0 C61 7.26 61 14.52 61 22 C48.79 22.33 36.58 22.66 24 23 C24 32.24 24 41.48 24 51 C26.11921875 50.98839844 28.2384375 50.97679687 30.421875 50.96484375 C32.48046723 50.95703899 34.53905779 50.9509703 36.59765625 50.94506836 C38.02539816 50.94004794 39.45313496 50.93323028 40.88085938 50.92456055 C42.93621079 50.91239447 44.99149407 50.90674872 47.046875 50.90234375 C48.90070801 50.89448853 48.90070801 50.89448853 50.79199219 50.88647461 C54 51 54 51 58 52 C58 58.93 58 65.86 58 73 C46.78 73.33 35.56 73.66 24 74 C24 84.23 24 94.46 24 105 C42.315 105.495 42.315 105.495 61 106 C61 113.59 61 121.18 61 129 C40.87 129 20.74 129 0 129 C0 86.43 0 43.86 0 0 Z " fill="#F4EAD1" transform="translate(618,723)"/>
<path d="M0 0 C24.09 0 48.18 0 73 0 C73 7.26 73 14.52 73 22 C60.625 22.495 60.625 22.495 48 23 C47.67 57.98 47.34 92.96 47 129 C39.41 129 31.82 129 24 129 C23 128 23 128 22.87695217 126.23712826 C22.87787396 125.46374394 22.87879576 124.69035963 22.87974548 123.89353943 C22.87837082 123.00867859 22.87699615 122.12381775 22.87557983 121.21214294 C22.87917511 120.23391068 22.88277039 119.25567841 22.88647461 118.24780273 C22.88632858 117.2235318 22.88618256 116.19926086 22.8860321 115.14395142 C22.88673172 111.74047771 22.89452637 108.33705796 22.90234375 104.93359375 C22.90420776 102.58089732 22.90563174 100.2282005 22.90663147 97.87550354 C22.91045801 91.66943295 22.92028945 85.4633856 22.93133545 79.25732422 C22.94154666 72.93001622 22.94612846 66.60270448 22.95117188 60.27539062 C22.9619116 47.85024854 22.97950949 35.42512983 23 23 C11.615 22.505 11.615 22.505 0 22 C0 14.74 0 7.48 0 0 Z " fill="#F4E9D0" transform="translate(779,723)"/>
<path d="M0 0 C24.09 0 48.18 0 73 0 C73 7.26 73 14.52 73 22 C65.08 22.33 57.16 22.66 49 23 C48.67 57.98 48.34 92.96 48 129 C40.41 129 32.82 129 25 129 C24.67 94.02 24.34 59.04 24 23 C16.08 22.67 8.16 22.34 0 22 C0 14.74 0 7.48 0 0 Z " fill="#F5EAD1" transform="translate(385,723)"/>
<path d="M0 0 C3.40273699 1.89040944 4.69795817 3.22955633 6.12011719 6.85717773 C7.56522806 12.37387508 7.28521622 18.06091456 7.265625 23.72265625 C7.26753845 24.94150009 7.2694519 26.16034393 7.27142334 27.41612244 C7.27278079 29.98550626 7.26911514 32.55489704 7.26074219 35.12426758 C7.25002754 39.05240291 7.26065753 42.98008187 7.2734375 46.90820312 C7.27211601 49.40885517 7.26955383 51.90950694 7.265625 54.41015625 C7.26967346 55.5821608 7.27372192 56.75416534 7.27789307 57.96168518 C7.20696732 70.31585055 7.20696732 70.31585055 2.6875 75.8125 C-0.1195489 78.09730724 -1.41697628 78.91042441 -5 79 C-9.47254369 77.90913569 -11.47849097 75.78226355 -14 72 C-15.0149851 68.89090393 -15.13695785 66.00579445 -15.16113281 62.74755859 C-15.17074036 61.69901703 -15.1803479 60.65047546 -15.19024658 59.57015991 C-15.19449646 58.44099152 -15.19874634 57.31182312 -15.203125 56.1484375 C-15.20882507 54.9792276 -15.21452515 53.8100177 -15.22039795 52.6053772 C-15.22984459 50.12901717 -15.23638059 47.65264458 -15.24023438 45.17626953 C-15.24990943 41.41025455 -15.28092438 37.64479248 -15.3125 33.87890625 C-15.31903348 31.46875323 -15.3242826 29.05859631 -15.328125 26.6484375 C-15.3404718 25.53141449 -15.3528186 24.41439148 -15.36553955 23.26351929 C-15.34372646 15.50486659 -14.98982693 7.48813142 -9.75 1.375 C-6.16974491 -0.41512754 -3.95790225 -0.56541461 0 0 Z " fill="#D83D30" transform="translate(301,368)"/>
<path d="M0 0 C0.70833984 -0.020625 1.41667969 -0.04125 2.14648438 -0.0625 C7.63963445 -0.10307729 11.76075929 0.92252154 15.95703125 4.75 C19.91295997 9.83052385 20.50523064 13.18950921 20.625 19.5625 C20.66238281 20.85800781 20.69976562 22.15351562 20.73828125 23.48828125 C20.1218723 28.93416949 17.76241103 31.9088323 13.8125 35.5625 C9.30153625 38.60740053 4.94112096 38.40534893 -0.375 38.375 C-1.06400391 38.37886719 -1.75300781 38.38273438 -2.46289062 38.38671875 C-7.56080665 38.37669335 -7.56080665 38.37669335 -8.6875 37.25 C-8.78845564 34.59543807 -8.82720998 31.96744824 -8.8203125 29.3125 C-8.82126923 28.517229 -8.82222595 27.72195801 -8.82321167 26.90258789 C-8.82389343 25.2179354 -8.82203943 23.53328029 -8.81787109 21.84863281 C-8.81252275 19.26100803 -8.81781619 16.67355684 -8.82421875 14.0859375 C-8.82355797 12.45312461 -8.8222768 10.82031184 -8.8203125 9.1875 C-8.82233673 8.40834229 -8.82436096 7.62918457 -8.82644653 6.82641602 C-8.79326597 -0.72560636 -6.89047937 0.04882536 0 0 Z " fill="#E13D2F" transform="translate(331.6875,744.75)"/>
<path d="M0 0 C0.89912109 -0.02900391 1.79824219 -0.05800781 2.72460938 -0.08789062 C8.45310063 -0.14252774 11.80371459 0.42367259 16.3125 4.3125 C19.79559756 8.54869973 21.12663767 11.82956116 21.3125 17.3125 C20.69039773 22.87313718 19.61007278 27.4673033 15.3125 31.3125 C7.72440882 35.62729695 -1.20211029 34.8000583 -9.6875 34.3125 C-11.36423649 32.63576351 -10.81537817 30.58394924 -10.82644653 28.34594727 C-10.8244223 27.65428467 -10.82239807 26.96262207 -10.8203125 26.25 C-10.82126923 25.54351318 -10.82222595 24.83702637 -10.82321167 24.10913086 C-10.82389333 22.61279207 -10.82204005 21.11645033 -10.81787109 19.62011719 C-10.81252257 17.32219843 -10.81781651 15.02447514 -10.82421875 12.7265625 C-10.82355797 11.27604123 -10.8222768 9.82552009 -10.8203125 8.375 C-10.82233673 7.6833374 -10.82436096 6.9916748 -10.82644653 6.27905273 C-10.78731945 -1.63236837 -6.8670743 0.07228499 0 0 Z " fill="#E03E30" transform="translate(555.6875,795.6875)"/>
<path d="M0 0 C0.80373047 -0.020625 1.60746094 -0.04125 2.43554688 -0.0625 C9.0428767 -0.10572047 13.11078271 1.33546323 18.1875 5.75 C20.9510823 9.38058852 21.13017392 13.02702234 20.94140625 17.484375 C19.8712357 22.19046662 17.02133047 25.2797589 13.3125 28.25 C10.51377394 29.18290869 8.79261055 29.37859447 5.8984375 29.3828125 C4.63386719 29.38474609 4.63386719 29.38474609 3.34375 29.38671875 C2.4671875 29.38285156 1.590625 29.37898437 0.6875 29.375 C-0.19679688 29.37886719 -1.08109375 29.38273438 -1.9921875 29.38671875 C-2.83265625 29.38542969 -3.673125 29.38414062 -4.5390625 29.3828125 C-5.31072754 29.38168457 -6.08239258 29.38055664 -6.87744141 29.37939453 C-8.6875 29.25 -8.6875 29.25 -9.6875 28.25 C-9.78733058 26.26242972 -9.81830753 24.2713248 -9.8203125 22.28125 C-9.82160156 21.07082031 -9.82289063 19.86039063 -9.82421875 18.61328125 C-9.82035156 17.33839844 -9.81648437 16.06351563 -9.8125 14.75 C-9.81636719 13.47511719 -9.82023438 12.20023438 -9.82421875 10.88671875 C-9.82292969 9.67628906 -9.82164062 8.46585938 -9.8203125 7.21875 C-9.81918457 6.09919922 -9.81805664 4.97964844 -9.81689453 3.82617188 C-9.53835525 -1.71938745 -4.39104393 0.0275085 0 0 Z " fill="#E03E30" transform="translate(554.6875,744.75)"/>
<path d="M0 0 C3.87850945 2.67801843 6.13291589 5.33624767 7.625 9.8125 C8.06620325 15.10693899 7.89225155 18.76669081 4.9453125 23.26953125 C2.02383781 26.68368067 -1.17349904 28.47498766 -5.6171875 29.15625 C-10.57530084 29.35657781 -14.18019867 28.64155206 -18.375 25.8125 C-23.04430023 20.63841056 -23.73292578 17.41864393 -23.65234375 10.578125 C-23.26098046 6.67551637 -22.06120197 4.64008102 -19.375 1.8125 C-13.51186156 -2.37545603 -6.62218251 -2.33002718 0 0 Z " fill="#F5EBD2" transform="translate(493.375,774.1875)"/>
<path d="M0 0 C2 1 2 1 2.62687683 2.83294678 C2.80310074 3.6328302 2.97932465 4.43271362 3.16088867 5.25683594 C3.36417282 6.16157654 3.56745697 7.06631714 3.77690125 7.99847412 C3.98845352 8.98382141 4.2000058 9.9691687 4.41796875 10.984375 C4.63947098 11.99211975 4.86097321 12.9998645 5.08918762 14.03814697 C5.55646295 16.17587451 6.01936368 18.31456215 6.47827148 20.45410156 C7.18215315 23.72515235 7.90552409 26.99146076 8.63085938 30.2578125 C9.08191934 32.33307501 9.5318268 34.40858841 9.98046875 36.484375 C10.19809372 37.46162537 10.41571869 38.43887573 10.63993835 39.44573975 C10.93067986 40.82176361 10.93067986 40.82176361 11.22729492 42.22558594 C11.40113205 43.02865173 11.57496918 43.83171753 11.7540741 44.65911865 C12 47 12 47 11 52 C3.74 52 -3.52 52 -11 52 C-11.94670868 48.21316527 -12.02625261 47.0543805 -11.22729492 43.46264648 C-11.03346725 42.57169785 -10.83963959 41.68074921 -10.63993835 40.76280212 C-10.42231339 39.80853836 -10.20468842 38.8542746 -9.98046875 37.87109375 C-9.7618367 36.88504654 -9.54320465 35.89899933 -9.31794739 34.8830719 C-8.85390877 32.80006625 -8.3854281 30.71804592 -7.9128418 28.63696289 C-7.19001855 25.44860925 -6.4836262 22.25693713 -5.77929688 19.06445312 C-5.32649533 17.0414483 -4.87275098 15.01865422 -4.41796875 12.99609375 C-4.20641647 12.03980576 -3.9948642 11.08351776 -3.77690125 10.09825134 C-3.47197502 8.76655663 -3.47197502 8.76655663 -3.16088867 7.40795898 C-2.98466476 6.62726547 -2.80844086 5.84657196 -2.62687683 5.04222107 C-2 3 -2 3 0 0 Z " fill="#DF3E30" transform="translate(736,755)"/>
<path d="M0 0 C2 1 2 1 2.62687683 2.83294678 C2.80310074 3.6328302 2.97932465 4.43271362 3.16088867 5.25683594 C3.36417282 6.16157654 3.56745697 7.06631714 3.77690125 7.99847412 C3.98845352 8.98382141 4.2000058 9.9691687 4.41796875 10.984375 C4.63947098 11.99211975 4.86097321 12.9998645 5.08918762 14.03814697 C5.55646295 16.17587451 6.01936368 18.31456215 6.47827148 20.45410156 C7.18215315 23.72515235 7.90552409 26.99146076 8.63085938 30.2578125 C9.08191934 32.33307501 9.5318268 34.40858841 9.98046875 36.484375 C10.19809372 37.46162537 10.41571869 38.43887573 10.63993835 39.44573975 C10.93067986 40.82176361 10.93067986 40.82176361 11.22729492 42.22558594 C11.40113205 43.02865173 11.57496918 43.83171753 11.7540741 44.65911865 C12 47 12 47 11 52 C3.74 52 -3.52 52 -11 52 C-11.85941953 47.70290234 -12.10433591 46.28002531 -11.22729492 42.33325195 C-11.03346725 41.43915115 -10.83963959 40.54505035 -10.63993835 39.62385559 C-10.42231339 38.67161606 -10.20468842 37.71937653 -9.98046875 36.73828125 C-9.7618367 35.75127731 -9.54320465 34.76427338 -9.31794739 33.74736023 C-8.85443061 31.66601766 -8.38594666 29.58577589 -7.9128418 27.5065918 C-7.18839704 24.31645017 -6.48273479 21.12256609 -5.77929688 17.92773438 C-5.32663203 15.90600088 -4.87289282 13.88450758 -4.41796875 11.86328125 C-4.20641647 10.90496902 -3.9948642 9.9466568 -3.77690125 8.95930481 C-3.47197502 7.63233833 -3.47197502 7.63233833 -3.16088867 6.27856445 C-2.98466476 5.49866653 -2.80844086 4.71876862 -2.62687683 3.91523743 C-2 2 -2 2 0 0 Z " fill="#E03E30" transform="translate(241,755)"/>
</svg>
